<svg width="300" height="80" viewBox="0 0 300 80" fill="none" xmlns="http://www.w3.org/2000/svg">
<path d="M67.8605 69.1052C65.6545 69.1052 63.8844 67.3226 63.8844 65.1581C63.8844 62.9934 65.6801 61.211 67.8605 61.211C70.041 61.211 71.8367 62.9934 71.8367 65.1581C71.8367 67.3226 70.041 69.1052 67.8605 69.1052Z" fill="#FF4B11"/>
<path d="M47.9026 70.1494V69.8438C47.9026 58.9192 56.8554 50.0318 67.8605 50.0318H68.1426V57.926H67.8605C61.242 57.926 55.8806 63.2736 55.8806 69.8183V70.0984H47.9026V70.1494Z" fill="#FF4B11"/>
<path d="M88.7418 54.0297C88.3315 54.0297 87.9209 53.9534 87.5106 53.826C85.4327 53.1639 84.2783 50.9231 84.9452 48.8347C85.484 47.2051 86.9975 46.1101 88.7418 46.1101C89.1523 46.1101 89.5627 46.1864 89.9732 46.3138C92.0511 46.9759 93.2055 49.2167 92.5386 51.3049C91.9998 52.9347 90.4863 54.0297 88.7418 54.0297Z" fill="#FF4B11"/>
<path d="M87.1003 70.3531C82.0468 68.7232 77.9166 65.2344 75.5054 60.498C73.094 55.7868 72.6578 50.4135 74.2997 45.3969L74.3766 45.1167L81.9442 47.5614L81.8671 47.8415C79.8149 54.0807 83.278 60.8035 89.563 62.8408L89.8451 62.9171L87.3825 70.4294L87.1003 70.3531Z" fill="#FF4B11"/>
<path d="M80.7642 29.6339C79.9177 29.6339 79.1225 29.3792 78.4299 28.8699C77.5577 28.2587 76.9934 27.3419 76.8394 26.2978C76.6854 25.2538 76.9163 24.2097 77.5577 23.3439C78.3016 22.3252 79.5073 21.7141 80.7899 21.7141C81.6365 21.7141 82.4316 21.9687 83.1242 22.478C83.9965 23.0892 84.5608 24.006 84.7148 25.05C84.8687 26.0941 84.6379 27.1382 83.9965 28.004C83.2525 29.0227 82.0468 29.6339 80.7642 29.6339Z" fill="#FF4B11"/>
<path d="M83.534 41.6789C79.3012 41.6789 75.2481 40.3803 71.8363 37.9101L71.6055 37.7318L76.2743 31.34L76.5052 31.5184C78.5574 32.9953 80.9943 33.7847 83.534 33.7847C84.1752 33.7847 84.8166 33.7338 85.4323 33.6318C88.5875 33.1227 91.3837 31.4418 93.2563 28.8699L93.4359 28.6407L99.8748 33.2753L99.6951 33.5047C95.9499 38.6231 89.9214 41.6789 83.534 41.6789Z" fill="#FF4B11"/>
<path d="M54.9316 29.6339C53.6491 29.6339 52.4434 29.0227 51.6994 28.004C51.0838 27.1382 50.8272 26.0941 50.9812 25.05C51.1351 24.006 51.7251 23.0892 52.5716 22.478C53.2643 21.9942 54.0595 21.7141 54.906 21.7141C56.1887 21.7141 57.3944 22.3252 58.1382 23.3439C58.7539 24.2097 59.0105 25.2538 58.8565 26.2978C58.7027 27.3419 58.1127 28.2587 57.2661 28.8699C56.5734 29.3792 55.7782 29.6339 54.9316 29.6339Z" fill="#FF4B11"/>
<path d="M58.9593 31.671L59.1901 31.4929C61.7812 29.6339 63.4741 26.8581 63.9872 23.7259C64.5003 20.5936 63.7307 17.4359 61.8581 14.8639L61.6786 14.6347L68.1174 10L68.2969 10.2292C71.4266 14.5074 72.6835 19.7533 71.8626 24.9737C71.0417 30.194 68.1943 34.7778 63.8846 37.9101L63.6538 38.0883L58.9593 31.671Z" fill="#FF4B11"/>
<path d="M46.9536 54.0297C45.2349 54.0297 43.6957 52.9347 43.157 51.3049C42.49 49.2422 43.6187 47.0012 45.7223 46.3138C46.1327 46.1864 46.5432 46.1101 46.9536 46.1101C48.6723 46.1101 50.2115 47.2051 50.7502 48.8347C51.4172 50.8976 50.2885 53.1386 48.1849 53.826C47.7745 53.9534 47.364 54.0297 46.9536 54.0297Z" fill="#FF4B11"/>
<path d="M53.8286 47.8416C52.8282 44.8113 50.7247 42.3666 47.8772 40.9149C46.1585 40.0491 44.3371 39.6163 42.4388 39.6163C41.1819 39.6163 39.9249 39.82 38.7192 40.2019L38.4627 40.3038L36 32.766L36.2822 32.6897C38.3087 32.0275 40.3866 31.722 42.4645 31.722C45.6198 31.722 48.6468 32.4605 51.4942 33.8865C56.2399 36.2803 59.7544 40.3803 61.4219 45.4224L61.4987 45.7026L53.9312 48.1472L53.8286 47.8416Z" fill="#FF4B11"/>
<path d="M224.291 41.8828C223.598 43.8944 223.059 46.3138 222.726 48.1217H222.136C221.802 46.3138 221.212 43.8181 220.571 41.8318L215.851 27.9786H208.078V28.5134L218.211 54.0552H226.626L236.758 28.5134V27.9786H228.985L224.291 41.8828Z" fill="#1B0E3F"/>
<path d="M256.485 45.0659C256.485 45.3969 256.485 45.6008 256.485 45.7534C256.485 47.2559 255.304 49.2677 251.278 49.2677C247.352 49.2677 245.172 47.0778 245.172 41.9083H263.668C263.821 40.6858 264 38.827 264 37.4771C264 31.6202 259.434 27.4184 251.405 27.4184C241.862 27.4184 237.681 33.3773 237.681 40.9915C237.681 49.6242 242.299 54.5645 251.252 54.5645C262.077 54.5645 263.796 49.1404 263.796 46.1609C263.796 45.9062 263.745 45.5242 263.692 45.1933L256.485 45.0659ZM251.458 32.4605C254.407 32.4605 256.921 33.963 256.921 36.8915C256.921 37.0443 256.921 37.3245 256.87 37.5792H245.403C245.711 33.9885 248.019 32.4605 251.458 32.4605Z" fill="#1B0E3F"/>
<path d="M176.269 27.9786H171.01V34.0393H176.269V54.0552H183.99V34.0393H196.739V54.0552H204.461V34.0393V27.9786H196.739H183.99V26.6035C183.99 23.242 184.631 21.4595 189.685 21.4595H204.461V15.195C204.461 15.195 198.381 15.195 188.915 15.195C179.45 15.195 176.269 18.2254 176.269 27.9786Z" fill="#1B0E3F"/>
<path d="M130.043 27.9786H123.604C122.321 30.8054 119.859 32.2824 116.036 32.2824H113.112V38.2666H122.116V47.7908H113.112V54.0552H139.072V47.7652H130.068V27.9786H130.043Z" fill="#1B0E3F"/>
<path d="M158.697 40.3293C155.208 40.3293 152.31 41.5516 150.873 42.7231H150.437L151.13 34.0393H167.65V27.9786H144.434L142.51 48.0962H149.847C150.873 46.6703 152.951 45.3206 155.593 45.3206C159.877 45.3206 162.571 47.5616 162.571 52.2472C162.571 56.1944 160.108 59.1228 155.978 59.1228C151.155 59.1228 149.539 56.1434 149.539 53.3167C149.539 53.1639 149.539 52.9857 149.59 52.68L141.715 52.8329C141.664 52.9857 141.612 53.4185 141.612 53.8005C141.612 59.7595 146.076 65.2344 156.209 65.2344C164.726 65.2344 170.959 60.2178 170.959 52.1454C170.933 44.8113 166.367 40.3293 158.697 40.3293Z" fill="#1B0E3F"/>
</svg>
