<?xml version="1.0" encoding="UTF-8" standalone="no"?>
<svg
   xmlns:dc="http://purl.org/dc/elements/1.1/"
   xmlns:cc="http://creativecommons.org/ns#"
   xmlns:rdf="http://www.w3.org/1999/02/22-rdf-syntax-ns#"
   xmlns:svg="http://www.w3.org/2000/svg"
   xmlns="http://www.w3.org/2000/svg"
   xmlns:sodipodi="http://sodipodi.sourceforge.net/DTD/sodipodi-0.dtd"
   xmlns:inkscape="http://www.inkscape.org/namespaces/inkscape"
   version="1.1"
   id="svg2"
   xml:space="preserve"
   width="331.93332"
   height="316.51999"
   viewBox="0 0 331.93332 316.51999"
   sodipodi:docname="15Five RGB_Orange Mark.eps"><metadata
     id="metadata8"><rdf:RDF><cc:Work
         rdf:about=""><dc:format>image/svg+xml</dc:format><dc:type
           rdf:resource="http://purl.org/dc/dcmitype/StillImage" /></cc:Work></rdf:RDF></metadata><defs
     id="defs6" /><sodipodi:namedview
     pagecolor="#ffffff"
     bordercolor="#666666"
     borderopacity="1"
     objecttolerance="10"
     gridtolerance="10"
     guidetolerance="10"
     inkscape:pageopacity="0"
     inkscape:pageshadow="2"
     inkscape:window-width="640"
     inkscape:window-height="480"
     id="namedview4" /><g
     id="g10"
     inkscape:groupmode="layer"
     inkscape:label="ink_ext_XXXXXX"
     transform="matrix(1.3333333,0,0,-1.3333333,0,316.52)"><g
       id="g12"
       transform="scale(0.1)"><path
         d="m 1241.55,52.9688 c -85.59,0 -155.21,69.6332 -155.21,155.2112 0,85.59 69.62,155.211 155.21,155.211 85.57,0 155.2,-69.621 155.2,-155.211 0,-85.578 -69.63,-155.2112 -155.2,-155.2112"
         style="fill:#f03c1f;fill-opacity:1;fill-rule:nonzero;stroke:none"
         id="path14" /><path
         d="m 463.781,12.3281 v 11.2032 c 0,428.8477 348.907,777.7497 777.769,777.7497 h 11.2 v -310.41 h -11.2 C 983.852,490.871 774.203,281.219 774.203,23.5313 V 12.3281 H 463.781"
         style="fill:#f03c1f;fill-opacity:1;fill-rule:nonzero;stroke:none"
         id="path16" /><path
         d="m 2056.5,644.969 c -16.25,0 -32.41,2.582 -48,7.64 -81.39,26.45 -126.1,114.18 -99.65,195.571 20.85,64.172 80.17,107.289 147.59,107.289 16.25,0 32.39,-2.571 47.99,-7.629 81.38,-26.461 126.09,-114.192 99.65,-195.59 -20.85,-64.172 -80.16,-107.281 -147.58,-107.281"
         style="fill:#f03c1f;fill-opacity:1;fill-rule:nonzero;stroke:none"
         id="path18" /><path
         d="M 1991.76,3.46094 C 1794.49,67.5586 1633.85,204.91 1539.44,390.219 c -94.43,185.312 -111.13,396 -47.04,593.261 l 3.46,10.649 295.23,-95.91 -3.46,-10.649 C 1708,642.488 1842.61,378.309 2087.68,298.691 L 2098.33,295.23 2002.4,0 1991.76,3.46094"
         style="fill:#f03c1f;fill-opacity:1;fill-rule:nonzero;stroke:none"
         id="path20" /><path
         d="m 1745.08,1603.05 c -32.91,0 -64.41,10.26 -91.11,29.65 -33.55,24.37 -55.59,60.34 -62.07,101.29 -6.49,40.95 3.36,81.97 27.73,115.5 29.1,40.08 76.1,64 125.68,64 32.91,0 64.41,-10.26 91.12,-29.66 33.53,-24.36 55.57,-60.33 62.06,-101.29 6.48,-40.94 -3.36,-81.97 -27.74,-115.5 -29.11,-40.07 -76.09,-63.99 -125.67,-63.99"
         style="fill:#f03c1f;fill-opacity:1;fill-rule:nonzero;stroke:none"
         id="path22" /><path
         d="m 1852.73,1130.18 c -164.92,0 -322.64,51.27 -456.15,148.27 l -9.05,6.58 182.45,251.13 9.07,-6.59 c 80.43,-58.44 175.08,-89.34 273.69,-89.34 24.63,0 49.56,1.98 74.11,5.86 123.28,19.53 231.59,85.9 304.97,186.89 l 6.58,9.06 251.13,-182.45 -6.58,-9.07 c -145.73,-200.59 -381.33,-320.34 -630.22,-320.34"
         style="fill:#f03c1f;fill-opacity:1;fill-rule:nonzero;stroke:none"
         id="path24" /><path
         d="m 738.012,1603.05 c -49.59,0 -96.574,23.92 -125.684,63.99 -24.375,33.54 -34.219,74.56 -27.734,115.5 6.484,40.96 28.523,76.93 62.07,101.29 26.699,19.4 58.203,29.66 91.113,29.66 49.59,0 96.571,-23.92 125.684,-64 24.363,-33.54 34.219,-74.55 27.734,-115.5 -6.496,-40.95 -28.535,-76.92 -62.07,-101.29 -26.699,-19.39 -58.203,-29.65 -91.113,-29.65"
         style="fill:#f03c1f;fill-opacity:1;fill-rule:nonzero;stroke:none"
         id="path26" /><path
         d="m 894.992,1522.99 9.055,6.58 c 100.993,73.38 167.363,181.7 186.873,304.99 19.53,123.28 -10.12,246.8 -83.49,347.8 l -6.58,9.06 251.13,182.45 6.59,-9.07 c 122.11,-168.06 171.45,-373.62 138.95,-578.8 -32.49,-205.19 -142.95,-385.44 -311.02,-507.55 l -9.06,-6.58 -182.448,251.12"
         style="fill:#f03c1f;fill-opacity:1;fill-rule:nonzero;stroke:none"
         id="path28" /><path
         d="m 426.594,645.012 c -67.43,0 -126.739,43.129 -147.586,107.289 -26.445,81.39 18.262,169.129 99.648,195.578 15.594,5.062 31.746,7.633 47.996,7.633 67.422,0 126.731,-43.121 147.578,-107.293 26.458,-81.391 -18.25,-169.117 -99.648,-195.571 -15.594,-5.07 -31.738,-7.636 -47.988,-7.636"
         style="fill:#f03c1f;fill-opacity:1;fill-rule:nonzero;stroke:none"
         id="path30" /><path
         d="m 695.453,887.609 c -38.574,118.721 -121.074,215.331 -232.297,272.001 -66.66,33.97 -137.879,51.18 -211.668,51.18 -48.957,0 -97.707,-7.78 -144.902,-23.12 L 95.9297,1184.21 0.00390625,1479.43 10.6563,1482.89 c 78.5156,25.51 159.6487,38.44 241.1327,38.44 122.871,0 241.399,-28.65 352.285,-85.16 185.098,-94.28 322.395,-255.03 386.602,-452.611 l 3.469,-10.661 -295.227,-95.937 -3.465,10.648"
         style="fill:#f03c1f;fill-opacity:1;fill-rule:nonzero;stroke:none"
         id="path32" /></g></g></svg>
