<svg width="300" height="80" viewBox="0 0 300 80" fill="none" xmlns="http://www.w3.org/2000/svg">
<path d="M48.3926 21.169H65.2121C71.6951 21.169 75.9123 25.6013 75.9123 31.092C75.9123 35.9708 72.6047 44.3226 61.0279 44.3226H53.4037L51.1545 54.6921H41L48.3926 21.169ZM65.4271 32.1339C65.4271 30.5628 64.3686 29.6201 62.3509 29.6201H56.6783L55.3718 35.4912H61.3421C63.9055 35.4912 65.4271 34.135 65.4271 32.1835V32.1339ZM92.7152 26.4613C101.299 26.4613 107.434 31.6874 107.434 39.2784C107.4 41.4291 106.94 43.5518 106.081 45.5238C105.222 47.4958 103.981 49.2783 102.43 50.7682C100.878 52.2581 99.0473 53.426 97.0421 54.2045C95.037 54.983 92.8975 55.3567 90.7472 55.304C82.1638 55.304 76.0281 50.0779 76.0281 42.4869C76.0624 40.3362 76.5223 38.2135 77.3812 36.2415C78.2402 34.2694 79.4811 32.487 81.0326 30.9971C82.584 29.5072 84.4151 28.3393 86.4203 27.5608C88.4254 26.7823 90.5649 26.4086 92.7152 26.4613ZM92.4506 34.7304C90.6226 34.7865 88.8889 35.5544 87.6191 36.8706C86.3493 38.1867 85.6439 39.9469 85.6534 41.7757C85.63 42.4856 85.7534 43.1927 86.0159 43.8526C86.2784 44.5126 86.6743 45.1113 87.1788 45.6112C87.6834 46.1111 88.2857 46.5015 88.9481 46.7578C89.6105 47.0142 90.3187 47.131 91.0283 47.101C92.8752 47.0491 94.6273 46.272 95.9055 44.938C97.1838 43.6041 97.8854 41.8204 97.8586 39.973C97.8732 39.2664 97.742 38.5644 97.4732 37.9108C97.2044 37.2571 96.8038 36.6659 96.2964 36.174C95.7889 35.682 95.1855 35.3 94.5238 35.0516C93.8622 34.8032 93.1564 34.6939 92.4506 34.7304ZM107.947 54.7748H128.239L130.009 46.6876H119.11L123.427 27.1393H114.033L107.947 54.7748ZM131.679 54.7748H141.073L147.159 27.1393H137.766L131.679 54.7748ZM164.343 26.4613C162.173 26.4041 160.014 26.7795 157.992 27.5657C155.969 28.3519 154.124 29.5331 152.563 31.0403C151.001 32.5475 149.756 34.3506 148.899 36.3443C148.043 38.338 147.592 40.4824 147.573 42.6522C147.573 49.7306 153.047 55.304 161.994 55.304C164.657 55.2986 167.269 54.5831 169.563 53.2313C171.857 51.8795 173.748 49.9403 175.043 47.6137L167.915 43.5453C167.423 44.5794 166.658 45.4591 165.701 46.0889C164.745 46.7186 163.634 47.0744 162.49 47.1176C161.786 47.1705 161.078 47.0724 160.415 46.8299C159.752 46.5873 159.148 46.2059 158.643 45.7112C158.139 45.2164 157.747 44.6197 157.492 43.961C157.237 43.3023 157.125 42.5967 157.165 41.8915C157.158 40.0552 157.859 38.2868 159.122 36.9534C160.384 35.62 162.112 34.8239 163.946 34.7304C165.041 34.7194 166.106 35.0946 166.953 35.7901C167.8 36.4857 168.374 37.4572 168.576 38.5342L177.11 35.7227C175.853 30.4139 171.289 26.4613 164.343 26.4613ZM176.614 54.6921H199.073L200.727 47.1507H187.628L188.191 44.488H201.008L202.662 36.9465H189.845L190.357 34.5981H203.423L205.076 27.0566H182.65L176.614 54.6921ZM232.927 79.3838C232.927 79.3838 256.775 55.271 260 39.6919C256.858 23.9971 233.142 0 233.142 0C233.142 0 253.368 25.5351 253.368 39.8573C253.368 54.1794 232.927 79.3838 232.927 79.3838Z" fill="#004F7B"/>
<path d="M227.155 21.0863H234.498L230.314 40.7669L219.415 46.5718L222.723 30.5462L214.454 34.5485L216.107 26.9409L227.155 21.0863Z" fill="#878E92"/>
<path d="M209.343 54.6921L210.997 47.1507H237.045L235.391 54.6921H209.343Z" fill="#878E92"/>
</svg>
