<svg width="133" height="48" viewBox="0 0 133 48" fill="none" xmlns="http://www.w3.org/2000/svg">
<g clip-path="url(#clip0)">
<path d="M4.47 12.8H14.64C18.56 12.8 21.11 15.48 21.11 18.8C21.11 21.75 19.11 26.8 12.11 26.8H7.5L6.14 33.07H0L4.47 12.8ZM14.77 19.43C14.77 18.48 14.13 17.91 12.91 17.91H9.48L8.69 21.46H12.3C13.85 21.46 14.77 20.64 14.77 19.46V19.43ZM31.27 16C36.46 16 40.17 19.16 40.17 23.75C40.1493 25.0504 39.8712 26.3339 39.3518 27.5263C38.8325 28.7187 38.0821 29.7965 37.144 30.6974C36.2059 31.5982 35.0987 32.3044 33.8863 32.7752C32.6739 33.2459 31.3802 33.4719 30.08 33.44C24.89 33.44 21.18 30.28 21.18 25.69C21.2007 24.3896 21.4788 23.1061 21.9982 21.9137C22.5175 20.7213 23.2679 19.6435 24.206 18.7426C25.1441 17.8418 26.2513 17.1356 27.4637 16.6648C28.6761 16.1941 29.9698 15.9681 31.27 16ZM31.11 21C30.0047 21.0339 28.9564 21.4983 28.1886 22.2941C27.4208 23.0899 26.9943 24.1542 27 25.26C26.9859 25.6892 27.0605 26.1168 27.2192 26.5158C27.3779 26.9149 27.6173 27.2769 27.9224 27.5792C28.2275 27.8814 28.5917 28.1175 28.9922 28.2725C29.3927 28.4275 29.8209 28.4981 30.25 28.48C31.3667 28.4486 32.4261 27.9787 33.199 27.1721C33.972 26.3655 34.3962 25.287 34.38 24.17C34.3888 23.7427 34.3095 23.3183 34.147 22.923C33.9844 22.5278 33.7422 22.1703 33.4354 21.8729C33.1285 21.5754 32.7637 21.3444 32.3636 21.1942C31.9635 21.044 31.5368 20.9779 31.11 21ZM40.48 33.12H52.75L53.82 28.23H47.23L49.84 16.41H44.16L40.48 33.12ZM54.83 33.12H60.51L64.19 16.41H58.51L54.83 33.12ZM74.58 16C73.2684 15.9654 71.963 16.1924 70.74 16.6678C69.5171 17.1432 68.4011 17.8574 67.4572 18.7688C66.5132 19.6801 65.7603 20.7704 65.2422 21.9759C64.7242 23.1814 64.4515 24.478 64.44 25.79C64.44 30.07 67.75 33.44 73.16 33.44C74.7699 33.4367 76.3497 33.0041 77.7366 32.1867C79.1235 31.3693 80.2673 30.1968 81.05 28.79L76.74 26.33C76.4427 26.9553 75.9798 27.4872 75.4016 27.868C74.8234 28.2488 74.1519 28.4639 73.46 28.49C73.0341 28.522 72.6063 28.4627 72.2051 28.316C71.804 28.1694 71.4388 27.9388 71.134 27.6396C70.8292 27.3405 70.5917 26.9797 70.4375 26.5814C70.2834 26.1831 70.216 25.7564 70.24 25.33C70.236 24.2197 70.6597 23.1504 71.4231 22.3441C72.1865 21.5379 73.2311 21.0565 74.34 21C75.0026 20.9933 75.6463 21.2202 76.1583 21.6408C76.6703 22.0613 77.0179 22.6488 77.14 23.3L82.3 21.6C81.54 18.39 78.78 16 74.58 16ZM82 33.07H95.58L96.58 28.51H88.66L89 26.9H96.75L97.75 22.34H90L90.31 20.92H98.21L99.21 16.36H85.65L82 33.07ZM116.05 48C116.05 48 130.47 33.42 132.42 24C130.52 14.51 116.18 0 116.18 0C116.18 0 128.41 15.44 128.41 24.1C128.41 32.76 116.05 48 116.05 48Z" fill="#004F7B"/>
<path d="M112.56 12.75H117L114.47 24.65L107.88 28.16L109.88 18.47L104.88 20.89L105.88 16.29L112.56 12.75Z" fill="#878E92"/>
<path d="M101.79 33.07L102.79 28.51H118.54L117.54 33.07H101.79Z" fill="#878E92"/>
</g>
<defs>
<clipPath id="clip0">
<rect width="132.7" height="48" fill="white"/>
</clipPath>
</defs>
</svg>
