<svg width="300" height="80" viewBox="0 0 300 80" fill="none" xmlns="http://www.w3.org/2000/svg">
<path d="M82.2431 44.6686C86.9777 44.6686 93.828 43.69 93.828 38.0459C93.842 37.6103 93.8026 37.1746 93.7107 36.7486L90.8911 24.4741C90.2401 21.7735 89.6686 20.5483 84.9378 18.1776C81.2667 16.2962 73.2697 13.1897 70.9043 13.1897C68.7016 13.1897 68.062 16.0345 65.4354 16.0345C62.9073 16.0345 61.0301 13.9103 58.6646 13.9103C56.3938 13.9103 54.914 15.4617 53.7711 18.6517C53.7711 18.6517 50.5882 27.649 50.1794 28.9538C50.1144 29.1934 50.0864 29.4416 50.0962 29.6897C50.0962 33.1869 63.8345 44.6535 82.2431 44.6535V44.6686ZM94.5546 40.3369C95.2094 43.4435 95.2094 43.7697 95.2094 44.1793C95.2094 49.4897 89.2523 52.4369 81.4218 52.4369C63.7247 52.4483 48.2228 42.0552 48.2228 35.1859C48.2217 34.2297 48.4162 33.2834 48.7942 32.4055C42.4284 32.7241 34.1892 33.8621 34.1892 41.1524C34.1892 53.0931 62.419 67.8103 84.7713 67.8103C101.908 67.8103 106.23 60.0421 106.23 53.9086C106.23 49.0838 102.067 43.6066 94.5622 40.3369" fill="#EE0000"/>
<path d="M94.5547 40.3369C95.2094 43.4434 95.2094 43.7697 95.2094 44.1793C95.2094 49.4897 89.2523 52.4369 81.4219 52.4369C63.7248 52.4483 48.2228 42.0552 48.2228 35.1859C48.2218 34.2297 48.4163 33.2834 48.7943 32.4055L50.1795 28.969C50.116 29.2037 50.0879 29.4466 50.0962 29.6897C50.0962 33.1869 63.8345 44.6534 82.2431 44.6534C86.9778 44.6534 93.828 43.6748 93.828 38.0307C93.842 37.5951 93.8027 37.1594 93.7107 36.7334L94.5547 40.3369Z" fill="black"/>
<path d="M253.412 48.2C253.412 52.71 256.118 54.9024 261.053 54.9024C262.573 54.8645 264.083 54.6505 265.553 54.2652V49.0345C264.614 49.333 263.633 49.4815 262.647 49.4745C260.614 49.4745 259.861 48.8372 259.861 46.9217V38.9069H265.75V33.5207H259.861V26.6931L253.427 28.089V33.5207H249.154V38.9069H253.412V48.2ZM233.353 48.3214C233.353 46.9255 234.75 46.2465 236.858 46.2465C238.147 46.2541 239.43 46.4145 240.681 46.7245V49.4365C239.448 50.1113 238.062 50.455 236.657 50.4341C234.591 50.4341 233.353 49.6376 233.353 48.3214ZM235.321 54.9821C237.592 54.9821 239.424 54.5041 241.135 53.3472V54.6255H247.501V41.0993C247.501 35.9559 244.041 33.1338 238.27 33.1338C235.045 33.1338 231.859 33.8924 228.43 35.4476L230.738 40.1965C233.206 39.1572 235.28 38.52 237.108 38.52C239.757 38.52 241.127 39.5555 241.127 41.6721V42.7076C239.568 42.3029 237.962 42.1015 236.351 42.1083C230.935 42.1083 227.673 44.3841 227.673 48.4541C227.673 52.1638 230.617 54.9934 235.314 54.9934L235.321 54.9821ZM200.328 54.6369H207.175V43.6938H218.639V54.6255H225.504V26.7007H218.665V37.4314H207.201V26.7007H200.355L200.328 54.6369ZM174.267 44.0541C174.267 41.0197 176.655 38.7059 179.8 38.7059C181.437 38.6726 183.025 39.2576 184.251 40.3445V47.7221C183.657 48.2844 182.958 48.7234 182.195 49.0137C181.431 49.3041 180.617 49.44 179.8 49.4138C176.697 49.4138 174.267 47.1 174.267 44.0693V44.0541ZM184.338 54.6407H190.708V25.3048L184.274 26.7007V34.6397C182.636 33.7091 180.782 33.2276 178.9 33.2438C172.772 33.2438 167.954 37.989 167.954 44.0541C167.937 45.4773 168.202 46.8896 168.735 48.2088C169.268 49.528 170.058 50.7275 171.059 51.7374C172.059 52.7472 173.251 53.5475 174.563 54.0907C175.875 54.6342 177.283 54.91 178.703 54.9024C180.733 54.9123 182.714 54.2701 184.353 53.0703L184.338 54.6407ZM155.109 38.4138C157.138 38.4138 158.849 39.73 159.526 41.7631H150.746C151.381 39.6655 152.975 38.4138 155.109 38.4138ZM144.259 44.1034C144.259 50.2483 149.273 55.0352 155.719 55.0352C159.261 55.0352 161.85 54.0755 164.518 51.8414L160.256 48.0483C159.261 49.0876 157.789 49.6452 156.04 49.6452C154.941 49.6762 153.858 49.3728 152.933 48.775C152.009 48.1771 151.288 47.3128 150.863 46.2959H165.869V44.6914C165.869 37.989 161.373 33.1641 155.242 33.1641C153.801 33.1423 152.37 33.4096 151.033 33.9501C149.696 34.4907 148.48 35.2937 147.458 36.3118C146.435 37.33 145.626 38.5428 145.078 39.8789C144.53 41.215 144.254 42.6475 144.266 44.0921L144.259 44.1034ZM133.158 32.5648C135.429 32.5648 136.701 33.9986 136.701 35.7169C136.701 37.4352 135.429 38.869 133.158 38.869H126.387V32.5648H133.158ZM119.533 54.6255H126.38V44.4524H131.591L136.848 54.6255H144.512L138.381 43.4548C139.939 42.8197 141.272 41.7319 142.208 40.3313C143.144 38.9306 143.641 37.2813 143.634 35.5955C143.634 30.5697 139.694 26.7007 133.794 26.7007H119.533V54.6255Z" fill="black"/>
</svg>
