<svg width="613" height="145" viewBox="0 0 613 145" fill="none" xmlns="http://www.w3.org/2000/svg">
<path d="M127.47 83.49C139.98 83.49 158.08 80.91 158.08 66.03C158.117 64.8816 158.013 63.733 157.77 62.61L150.32 30.25C148.6 23.13 147.09 19.9 134.59 13.65C124.89 8.69 103.76 0.5 97.51 0.5C91.69 0.5 90 8 83.06 8C76.38 8 71.42 2.4 65.17 2.4C59.17 2.4 55.26 6.49 52.24 14.9C52.24 14.9 43.83 38.62 42.75 42.06C42.5783 42.6917 42.5042 43.3459 42.53 44C42.53 53.22 78.83 83.45 127.47 83.45V83.49ZM160 72.07C161.73 80.26 161.73 81.12 161.73 82.2C161.73 96.2 145.99 103.97 125.3 103.97C78.54 104 37.58 76.6 37.58 58.49C37.5773 55.9692 38.0912 53.4745 39.09 51.16C22.27 52 0.5 55 0.5 74.22C0.5 105.7 75.09 144.5 134.15 144.5C179.43 144.5 190.85 124.02 190.85 107.85C190.85 95.13 179.85 80.69 160.02 72.07" fill="#EE0000"/>
<path d="M160 72.07C161.73 80.26 161.73 81.12 161.73 82.2C161.73 96.2 145.99 103.97 125.3 103.97C78.54 104 37.58 76.6 37.58 58.49C37.5773 55.9692 38.0912 53.4745 39.09 51.16L42.75 42.1C42.5824 42.7188 42.5082 43.3592 42.53 44C42.53 53.22 78.83 83.45 127.47 83.45C139.98 83.45 158.08 80.87 158.08 65.99C158.117 64.8416 158.013 63.693 157.77 62.57L160 72.07Z" fill="black"/>
<path d="M579.74 92.8C579.74 104.69 586.89 110.47 599.93 110.47C603.945 110.37 607.935 109.806 611.82 108.79V95C609.337 95.787 606.745 96.1784 604.14 96.16C598.77 96.16 596.78 94.48 596.78 89.43V68.3H612.34V54.1H596.78V36.1L579.78 39.78V54.1H568.49V68.3H579.74V92.8ZM526.74 93.12C526.74 89.44 530.43 87.65 536 87.65C539.405 87.6698 542.795 88.0927 546.1 88.91V96.06C542.843 97.839 539.181 98.7451 535.47 98.69C530.01 98.69 526.74 96.59 526.74 93.12V93.12ZM531.94 110.68C537.94 110.68 542.78 109.42 547.3 106.37V109.74H564.12V74.08C564.12 60.52 554.98 53.08 539.73 53.08C531.21 53.08 522.79 55.08 513.73 59.18L519.83 71.7C526.35 68.96 531.83 67.28 536.66 67.28C543.66 67.28 547.28 70.01 547.28 75.59V78.32C543.159 77.2532 538.917 76.7221 534.66 76.74C520.35 76.74 511.73 82.74 511.73 93.47C511.73 103.25 519.51 110.71 531.92 110.71L531.94 110.68ZM439.48 109.77H457.57V80.92H487.86V109.74H506V36.12H487.93V64.41H457.64V36.12H439.55L439.48 109.77ZM370.62 81.87C370.62 73.87 376.93 67.77 385.24 67.77C389.563 67.6823 393.761 69.2245 397 72.09V91.54C395.431 93.0225 393.584 94.1798 391.566 94.9453C389.547 95.7107 387.397 96.0692 385.24 96C377.04 96 370.62 89.9 370.62 81.91V81.87ZM397.23 109.78H414.06V32.44L397.06 36.12V57.05C392.732 54.5966 387.834 53.3273 382.86 53.37C366.67 53.37 353.94 65.88 353.94 81.87C353.893 85.6219 354.595 89.3454 356.003 92.8232C357.411 96.3011 359.498 99.4635 362.142 102.126C364.786 104.788 367.934 106.898 371.402 108.33C374.869 109.763 378.588 110.49 382.34 110.47C387.705 110.496 392.937 108.803 397.27 105.64L397.23 109.78ZM320 67C325.36 67 329.88 70.47 331.67 75.83H308.47C310.15 70.3 314.36 67 320 67ZM291.33 82C291.33 98.2 304.58 110.82 321.61 110.82C330.97 110.82 337.81 108.29 344.86 102.4L333.6 92.4C330.97 95.14 327.08 96.61 322.46 96.61C319.555 96.6918 316.693 95.892 314.251 94.3159C311.809 92.7397 309.902 90.4611 308.78 87.78H348.43V83.55C348.43 65.88 336.55 53.16 320.35 53.16C316.542 53.1025 312.761 53.8071 309.229 55.2322C305.697 56.6573 302.485 58.7742 299.783 61.4584C297.081 64.1427 294.944 67.34 293.495 70.8625C292.047 74.385 291.318 78.1615 291.35 81.97L291.33 82ZM262 51.58C268 51.58 271.36 55.36 271.36 59.89C271.36 64.42 268 68.2 262 68.2H244.11V51.58H262ZM226 109.74H244.09V82.92H257.86L271.75 109.74H292L275.8 80.29C279.917 78.6156 283.439 75.7477 285.912 72.0552C288.386 68.3626 289.698 64.0144 289.68 59.57C289.68 46.32 279.27 36.12 263.68 36.12H226V109.74Z" fill="black"/>
</svg>
