<svg xmlns="http://www.w3.org/2000/svg" width="250" height="50">
  <defs>
    <linearGradient id="a" x1="47.842%" x2="66.944%" y1="2.76%" y2="96.873%">
      <stop offset="0%" stop-color="#D1F90A"/>
      <stop offset="100%" stop-color="#0BCE52"/>
    </linearGradient>
    <linearGradient id="b" x1="25.782%" x2="71.977%" y1="0%" y2="100%">
      <stop offset="0%" stop-color="#BDF412"/>
      <stop offset="100%" stop-color="#8DEA23"/>
    </linearGradient>
  </defs>
  <g fill="none" fill-rule="evenodd">
    <path fill="url(#a)"
          d="M30.984.17C25.49.17 21.308 3.675 19.8 9.546c-1.27 4.936-2.554 7.904-2.783 8.414-2.72 4.665-11.251 10.809-14.328 12.795a.492.492 0 0 0-.02.013C1.288 31.675.003 33.186 0 34.96v.015c0 .365.056.742.176 1.126.549 1.761 2.316 2.872 4.511 2.833l16.534-.002.864 1.85c.6 1.567 1.961 2.626 3.585 2.776.132.012.265.018.396.018 1.663 0 3.261-.958 4.152-2.52.034-.06.065-.119.093-.18l1.102-2.362c4.337-1.353 7.281-4.11 8.76-8.21 1.318-3.65 1.313-7.893 1.308-11.636V17.3l1.849-.863c1.568-.6 2.627-1.961 2.777-3.585.166-1.802-.816-3.587-2.503-4.548a2.494 2.494 0 0 0-.18-.093l-2.44-1.139C39.642 2.947 35.71.17 30.984.17zm-9.593 20.16c.03-.056.06-.113.087-.17.066-.138 1.615-3.454 3.137-9.376.935-3.638 3.197-5.641 6.37-5.641 2.763 0 4.998 1.696 5.436 4.125a2.486 2.486 0 0 0 1.395 1.813l2.615 1.22-2.489 1.162a2.486 2.486 0 0 0-1.435 2.253v2.96c.011 8.424-.485 13.66-7.453 15.333-.829.199-1.476.8-1.756 1.565l-1.078 2.31-1.162-2.49a2.486 2.486 0 0 0-2.253-1.434h-2.276l-13.695.002c3.348-2.304 11.497-8.258 14.557-13.633z"
          transform="translate(0 .006)"/>
    <path fill="url(#b)"
          d="M29.395 11.64a2.45 2.45 0 1 0 4.902 0 2.45 2.45 0 0 0-4.902 0"
          transform="translate(0 .006)"/>
    <path
        d="M158.716 18.263c-.527-1.7-1.313-3.003-2.403-3.985-1.324-1.194-3.028-1.83-5.21-1.948a13.192 13.192 0 0 0-3.998.397c-1.833.472-3.376 1.484-4.587 3.01-.134.169-.265.34-.404.523a2.126 2.126 0 0 0-.04-.06c-.116-.16-.227-.324-.338-.488-.262-.388-.532-.789-.866-1.133-1.019-1.05-2.344-1.72-4.053-2.052a12.142 12.142 0 0 0-5.753.275c-1.614.469-3.007 1.41-4.141 2.798l-.06-.262c-.205-.9-.505-1.535-.971-2.057-.453-.508-1.303-.74-2.066-.565-.688.158-1.186.614-1.367 1.251-.102.356-.102.744-.102 1.056-.005 6.816-.004 13.633-.003 20.449v.128c-.001.22-.003.449.024.678.151 1.31.805 2.114 1.89 2.323.609.118 1.152.144 1.616.077.79-.114 1.403-.59 1.727-1.34.262-.609.298-1.242.298-1.836-.002-4.828-.002-9.656 0-14.484v-.093c-.002-.089-.005-.21.02-.255l.161-.292c.217-.395.44-.804.722-1.139 1.343-1.597 3.074-2.407 5.291-2.475 1.467-.042 2.49.566 3.129 1.868.565 1.15.822 2.46.834 4.246.018 2.899.017 5.847.016 8.698v3.888c0 .252 0 .514.03.775.131 1.18.63 1.923 1.526 2.272.405.159.826.238 1.257.238.34 0 .688-.05 1.04-.148.799-.224 1.324-.797 1.518-1.658.099-.44.15-.926.15-1.445.007-3.232.008-6.463.008-9.695l.001-4.79v-.081c-.002-.11-.004-.244.029-.304l.135-.25c.21-.388.428-.791.705-1.117 1.474-1.736 3.449-2.57 5.867-2.484.915.034 1.666.437 2.23 1.199.572.77.911 1.695 1.04 2.829a31.36 31.36 0 0 1 .19 3.295c.013 2.273.012 4.584.01 6.82 0 1.517-.001 3.034.002 4.552.002.735.042 1.512.502 2.2.604.905 1.767 1.26 3.19.975.868-.174 1.48-.764 1.727-1.663.11-.4.162-.851.163-1.42.01-3.43.012-7.091.005-11.522-.003-1.854-.089-3.838-.69-5.78m25.333 7.396v.003c-.019 2.418-.626 4.386-1.856 6.02-1.14 1.51-2.646 2.43-4.479 2.733-1.944.32-3.606.028-5.084-.893-1.233-.769-2.145-1.894-2.788-3.441-.652-1.567-.913-3.283-.8-5.246.106-1.815.548-3.352 1.35-4.698 1.036-1.737 2.49-2.803 4.322-3.167a8.956 8.956 0 0 1 1.747-.177c2.922 0 5.344 1.562 6.663 4.384.646 1.383.958 2.891.925 4.482m2.563-8.945c-2.124-2.527-4.8-3.976-7.951-4.308-2.297-.243-4.526.027-6.625.8-1.425.525-2.54 1.276-3.406 2.296a8.25 8.25 0 0 0-.383.496c-.03-.158-.058-.316-.086-.474a20.576 20.576 0 0 0-.106-.578c-.283-1.394-.98-2.096-2.263-2.276-.859-.122-1.66.324-1.947 1.082-.145.383-.219.837-.22 1.35-.009 9.307-.008 18.768-.007 27.918v3.35c0 .169.002.39.017.61.121 1.775 1.04 2.675 2.731 2.675h.015c1.273-.004 2.109-.47 2.485-1.389.207-.503.319-1.133.324-1.822a878.3 878.3 0 0 0 .016-7.598c0-.95-.002-1.9-.001-2.85v-.052c1.376 1.49 3.148 2.433 5.411 2.881 1.517.3 3.07.328 4.615.08 1.76-.281 3.356-.9 4.745-1.836 3.276-2.212 5.151-5.509 5.571-9.799.188-1.92.051-3.777-.408-5.519-.524-1.99-1.35-3.637-2.527-5.037m-98.295 6.053H74.366c.577-3.238 3.37-6.263 7.757-5.945 1.899.137 3.485 1.017 4.715 2.615a7.624 7.624 0 0 1 1.48 3.33m2.61-6.641c-2.115-2.127-4.726-3.374-7.762-3.706-3.395-.371-6.45.342-9.08 2.122-3.302 2.236-5.176 5.547-5.569 9.842a15.9 15.9 0 0 0 .418 5.37c.511 2.015 1.407 3.744 2.663 5.139 2.228 2.474 5.19 3.862 8.806 4.128.415.03.828.046 1.238.046 1.699 0 3.346-.262 4.911-.781 1.964-.652 3.5-1.56 4.697-2.775.668-.679 1.547-1.758 1.473-3.29-.032-.656-.426-1.28-1.03-1.63-.56-.325-1.182-.357-1.71-.088-.578.294-1.154.729-1.812 1.368-1.852 1.796-3.97 2.67-6.476 2.672h-.005c-1.694 0-3.088-.418-4.261-1.277-1.808-1.323-2.833-3.253-3.225-6.072a3.484 3.484 0 0 1-.02-.163c.06-.004.139-.004.198-.004h8.445l.248-.012c.735 0 1.47.002 2.205.004 1.964.006 3.996.01 5.995-.015 1.508-.02 2.615-.96 2.819-2.395.181-1.274-.06-2.5-.319-3.531-.465-1.853-1.424-3.52-2.848-4.952m21.692 12.02a103.456 103.456 0 0 1 0 .879c-.003.247-.006.48.01.84-.045 1.405-.431 1.973-1.061 2.74-.902 1.099-2.133 1.743-3.66 1.915-1.125.127-1.975.163-2.757.12-1.184-.066-2.138-.414-2.916-1.066-.749-.627-1.118-1.486-1.097-2.553.03-1.551.668-2.778 1.897-3.646.674-.477 1.493-.83 2.578-1.109a10.64 10.64 0 0 1 2.678-.32c.41 0 .836.02 1.279.058.67.058 1.353.191 2.013.32.303.06.605.119.908.172.1.017.142.024.136.216-.013.479-.01.964-.008 1.434zm5.635-5.692c0-1.543-.196-2.867-.598-4.049-.636-1.868-1.754-3.336-3.325-4.363-1.584-1.036-3.492-1.595-5.833-1.709a17.203 17.203 0 0 0-5.75.685c-1.769.526-3.087 1.243-4.148 2.257-.888.848-1.365 1.782-1.457 2.854-.066.77.298 1.541.95 2.01.694.5 1.563.582 2.385.226.683-.297 1.114-.836 1.567-1.458 1.023-1.407 2.43-2.161 4.178-2.242a17.325 17.325 0 0 1 3.088.137c1.222.162 2.152.845 2.69 1.975.651 1.369.75 2.826.744 4.091-1.224-.5-2.483-.652-3.67-.737-1.972-.142-4.024.031-6.098.516-2.023.472-3.555 1.203-4.823 2.298a7.161 7.161 0 0 0-2.313 3.787 9.482 9.482 0 0 0-.168 3.77c.249 1.556.834 2.805 1.789 3.819 1.51 1.603 3.536 2.476 6.193 2.67.36.025.72.036 1.074.036.984 0 1.927-.085 2.693-.167 1.76-.19 3.373-.87 4.795-2.024.17-.138.339-.28.503-.418.055.402.175.845.449 1.256.604.904 1.767 1.26 3.19.974.867-.174 1.48-.764 1.727-1.663.11-.4.161-.851.163-1.42a2787.194 2787.194 0 0 0 .006-10.852l-.001-2.26zm130.172-9.54c-1.056-.339-2.18.068-2.671.968-.246.451-.432.935-.612 1.404l-.016.041c-.865 2.255-1.724 4.513-2.583 6.77l-.348.916-2.224 5.847-.75 1.976c-.202-.542-.402-1.084-.602-1.626-.26-.702-.518-1.403-.78-2.104-.373-1-.748-1.998-1.123-2.997l-1.142-3.047c-.28-.75-.557-1.501-.834-2.252a384.063 384.063 0 0 0-1.575-4.214 2.777 2.777 0 0 0-1.545-1.582 2.908 2.908 0 0 0-2.285.027c-1.401.622-2.003 2.183-1.432 3.714.256.684.535 1.37.804 2.033.143.352.286.704.426 1.057l1.381 3.484c.849 2.14 1.697 4.282 2.55 6.42.377.946.757 1.89 1.137 2.834.57 1.414 1.159 2.876 1.726 4.319.029.073.062.145.095.217.134.293.211.486.107.748a100.473 100.473 0 0 0-1.683 4.503c-.502 1.457-1.484 2.403-3.002 2.891a5.55 5.55 0 0 0-1.512.746c-.652.466-.822 1.583-.567 2.294.304.846 1.045 1.353 1.983 1.355h.03c1.575 0 2.907-.375 4.071-1.147 1.158-.768 2.059-1.91 2.753-3.49.543-1.236 1.043-2.514 1.528-3.749l.451-1.148c.696-1.756 1.388-3.513 2.08-5.27l1.481-3.753c.468-1.184.938-2.368 1.407-3.551l1.215-3.065.458-1.159c.82-2.071 1.668-4.213 2.492-6.324l.086-.218c.2-.506.407-1.029.5-1.575.156-.919-.533-1.99-1.475-2.292M228.424 6.29c.452-1.148-.021-2.794-1.033-3.594-.885-.7-1.972-1.087-3.423-1.22-1.642-.15-3.063-.047-4.345.316-1.437.407-2.5 1.13-3.25 2.211-.841 1.216-1.262 2.66-1.322 4.544-.04 1.268-.03 2.557-.021 3.803l.006.799c0 .11-.018.137-.018.137 0 .001-.026.024-.164.042a9.123 9.123 0 0 0-1.48.311c-.816.249-1.31.771-1.43 1.512-.154.957.171 1.73.94 2.233.529.346 1.088.346 1.629.347.087 0 .173 0 .26.002h.02c.087.001.176.003.232.008.005.061.005.163.005.256V35.22c0 .083-.002.167-.004.25-.007.247-.014.503.035.758.08.414.189.894.394 1.321.287.597.905 1.004 1.739 1.147.206.035.419.053.63.053.507 0 1.008-.1 1.396-.285.882-.422 1.335-1.213 1.345-2.351a621 621 0 0 0 .012-6.536l-.002-2.255h.011v-9.25l.001-.098c.001-.069.002-.138 0-.207v-.018h.007c.338.034 1.551.019 2.482-.014.927-.033 2.167-.284 2.218-2.075.033-1.147-.467-1.928-1.447-2.257-.391-.131-1.648-.179-2.362-.195l-.268-.007a.498.498 0 0 0-.205 0l-.266.004h-.019a.463.463 0 0 1-.13-.01.4.4 0 0 1-.017-.161c.009-.879.008-1.772.008-2.636 0-.603 0-1.207.002-1.81.001-.233.025-.478.07-.73.191-1.055.878-1.663 1.987-1.76.882-.076 1.688.165 2.537.756.601.42 1.266.568 1.975.441.612-.11 1.05-.457 1.265-1.005M65.592 13.208a143.15 143.15 0 0 0-3.005-.01l-.976.002c-.155 0-.314.001-.386-.01-.011-.067-.011-.213-.011-.355v-.918c.002-.67.003-1.34-.002-2.01a73.442 73.442 0 0 1-.001-.813c.001-.759.003-1.543-.058-2.315-.059-.756-.36-1.346-.871-1.705-.577-.405-1.39-.493-2.29-.246-.721.197-1.21.717-1.38 1.464-.084.378-.11.765-.136 1.14l-.013.176c-.03.434-.056.868-.08 1.302a44.094 44.094 0 0 1-.197 2.56c-.07.596-.335 1.393-1.203 1.8-.214.1-.44.178-.679.26a9.437 9.437 0 0 0-.551.2c-.798.33-1.239.996-1.242 1.877-.003.923.46 1.619 1.268 1.91.425.152.885.176 1.329.199l.225.012.065.004c.081.005.17.01.223.018.007.061.007.172.007.272l-.003 3.45c-.004 3.01-.007 6.123.016 9.185.007.987.107 2.05.296 3.16.2 1.17.748 2.225 1.63 3.137 1.143 1.18 2.757 1.795 4.368 1.795 1.169 0 2.336-.324 3.32-.99.957-.648 1.477-1.436 1.588-2.41.106-.919-.479-1.833-1.276-1.997-.656-.135-1.217-.051-1.716.255-.29.178-.552.332-.824.401-.483.124-.906.093-1.19-.086-.222-.14-.367-.376-.43-.701-.084-.424-.17-.924-.174-1.417a474.741 474.741 0 0 1-.01-4.786l.002-1.731-.011-.249v-7.087c0-.047 0-.156.007-.22.043-.001.114 0 .21.008.84.06 2.48.16 3.25.185.548.018 1.232.041 1.857-.1.781-.176 1.337-.697 1.566-1.465.253-.85.053-1.864-.476-2.409-.613-.631-1.41-.728-2.036-.742m133.19-8.818c-.048-.321-.105-.662-.23-.985-.483-1.24-1.619-1.733-3.284-1.426-.892.165-1.524.7-1.782 1.506-.148.466-.225 1.016-.227 1.637-.011 3.942-.01 7.95-.01 11.825l.002 3.365v15.209c-.002.244-.003.496.025.748.145 1.312.797 2.118 1.883 2.33.39.076.755.115 1.09.115.184 0 .36-.012.525-.035.788-.11 1.403-.584 1.731-1.334.279-.635.302-1.3.302-1.874l-.002-18.76V5.167c0-.057 0-.113.002-.17a3.719 3.719 0 0 0-.025-.607m10.533 10.702c-.053-.655-.233-1.154-.565-1.57-.463-.58-1.124-.873-2.022-.898-1.522-.04-2.448.526-2.833 1.734-.143.45-.163.936-.164 1.354-.008 6.334-.009 13.008 0 19.838 0 .53.045.945.14 1.31.366 1.399 1.515 1.879 2.645 1.879.312 0 .624-.037.917-.101.818-.18 1.393-.705 1.619-1.479.18-.62.27-1.16.273-1.653.017-2.446.015-4.933.013-7.338l-.002-2.439v-9.174l.002-.358c.004-.362.007-.735-.023-1.105m-2.814-11.01a3.128 3.128 0 1 0 .003 6.257 3.128 3.128 0 0 0-.003-6.257"
        fill="#000"/>
  </g>
</svg>
