<svg width="300" height="80" viewBox="0 0 300 80" fill="none" xmlns="http://www.w3.org/2000/svg">
<g clip-path="url(#clip0)">
<path fill-rule="evenodd" clip-rule="evenodd" d="M53.886 17C48.764 17 44.8652 20.2677 43.4593 25.7411C42.2753 30.3429 41.0782 33.1099 40.8647 33.5854C38.3289 37.9345 30.3756 43.6625 27.5069 45.514C27.5006 45.5179 27.4944 45.5219 27.4883 45.5261C26.2008 46.3717 25.0028 47.7804 25 49.4343V49.4482C25 49.7885 25.0522 50.14 25.1641 50.498C25.6759 52.1398 27.3233 53.1755 29.3696 53.1392L44.7841 53.1373L45.5896 54.862C46.1489 56.3229 47.4178 57.3102 48.9318 57.4501C49.0549 57.4612 49.1789 57.4668 49.301 57.4668C50.8514 57.4668 52.3412 56.5737 53.1718 55.1175C53.2035 55.0615 53.2324 55.0065 53.2585 54.9497L54.2859 52.7476C58.3293 51.4862 61.0739 48.9159 62.4528 45.0935C63.6815 41.6907 63.6768 37.735 63.6722 34.2454V32.9701L65.396 32.1655C66.8578 31.6061 67.8451 30.3373 67.9849 28.8233C68.1397 27.1433 67.2242 25.4791 65.6514 24.5832C65.5967 24.5521 65.5407 24.5231 65.4836 24.4965L63.2088 23.4346C61.9577 19.589 58.292 17 53.886 17ZM44.9425 35.7949C44.9705 35.7427 44.9985 35.6896 45.0237 35.6364C45.0852 35.5078 46.5293 32.4163 47.9482 26.8953C48.8199 23.5036 50.9288 21.6363 53.8869 21.6363C56.4628 21.6363 58.5465 23.2174 58.9548 25.4819C59.0204 25.8472 59.1728 26.1914 59.3991 26.4855C59.6254 26.7797 59.9191 27.0152 60.2554 27.1722L62.6933 28.3096L60.3728 29.3929C59.9731 29.5794 59.6348 29.8761 59.3978 30.2482C59.1609 30.6202 59.035 31.0522 59.035 31.4933V34.2529C59.0452 42.1065 58.5828 46.9879 52.0867 48.5477C51.3138 48.7332 50.7106 49.2935 50.4496 50.0067L49.4446 52.1603L48.3612 49.8389C48.1746 49.4393 47.8778 49.1012 47.5058 48.8644C47.1337 48.6276 46.7018 48.5019 46.2608 48.502H44.1389L31.3712 48.5038C34.4925 46.3559 42.0898 40.805 44.9425 35.794V35.7949Z" fill="url(#paint0_linear)"/>
<path fill-rule="evenodd" clip-rule="evenodd" d="M52.4045 27.6933C52.4045 28.2994 52.6453 28.8806 53.0738 29.3091C53.5023 29.7376 54.0835 29.9784 54.6896 29.9784C55.2956 29.9784 55.8768 29.7376 56.3053 29.3091C56.7339 28.8806 56.9746 28.2994 56.9746 27.6933C56.9746 27.0873 56.7339 26.5061 56.3053 26.0776C55.8768 25.649 55.2956 25.4083 54.6896 25.4083C54.0835 25.4083 53.5023 25.649 53.0738 26.0776C52.6453 26.5061 52.4045 27.0873 52.4045 27.6933" fill="url(#paint1_linear)"/>
<path fill-rule="evenodd" clip-rule="evenodd" d="M172.969 33.8623C172.478 32.2774 171.745 31.0626 170.729 30.1471C169.494 29.0339 167.906 28.441 165.871 28.331C164.617 28.2633 163.36 28.3882 162.144 28.7011C160.435 29.1412 158.997 30.0846 157.868 31.5073C157.743 31.6649 157.621 31.8243 157.491 31.9949C157.479 31.976 157.466 31.9574 157.454 31.939C157.346 31.7898 157.242 31.6369 157.139 31.484C156.894 31.1223 156.643 30.7484 156.331 30.4277C155.381 29.4488 154.146 28.8242 152.553 28.5147C150.77 28.1687 148.931 28.2567 147.189 28.771C145.685 29.2083 144.386 30.0856 143.329 31.3796L143.273 31.1353C143.082 30.2963 142.802 29.7043 142.367 29.2176C141.945 28.744 141.153 28.5277 140.441 28.6909C139.8 28.8382 139.336 29.2633 139.167 29.8572C139.072 30.1891 139.072 30.5508 139.072 30.8417C139.067 37.1961 139.068 43.5515 139.069 49.906V50.0253C139.068 50.2304 139.066 50.4439 139.091 50.6574C139.232 51.8787 139.842 52.6283 140.853 52.8231C141.421 52.9331 141.927 52.9574 142.36 52.8949C143.097 52.7886 143.668 52.3448 143.97 51.6456C144.214 51.0779 144.248 50.4877 144.248 49.934C144.246 45.4329 144.246 40.9318 144.248 36.4307V36.344C144.246 36.261 144.243 36.1482 144.267 36.1063L144.417 35.834C144.619 35.4658 144.827 35.0845 145.09 34.7722C146.342 33.2833 147.956 32.5282 150.022 32.4648C151.39 32.4256 152.344 32.9924 152.94 34.2063C153.466 35.2784 153.706 36.4997 153.717 38.1648C153.734 40.8675 153.733 43.6158 153.732 46.2738V49.8985C153.732 50.1335 153.732 50.3777 153.76 50.621C153.882 51.7211 154.347 52.4138 155.183 52.7392C155.56 52.8874 155.953 52.9611 156.355 52.9611C156.672 52.9611 156.996 52.9145 157.324 52.8231C158.069 52.6143 158.559 52.0801 158.739 51.2774C158.832 50.8672 158.879 50.4141 158.879 49.9302C158.886 46.9171 158.887 43.9049 158.887 40.8917L158.888 36.4261V36.3505C158.886 36.248 158.884 36.1231 158.915 36.0671L159.04 35.834C159.236 35.4723 159.44 35.0966 159.698 34.7927C161.072 33.1742 162.913 32.3967 165.167 32.4769C166.021 32.5086 166.721 32.8843 167.246 33.5947C167.78 34.3126 168.096 35.1749 168.216 36.2321C168.329 37.2523 168.388 38.2777 168.393 39.304C168.405 41.4231 168.404 43.5776 168.403 45.6622C168.403 47.0765 168.402 48.4908 168.404 49.906C168.406 50.5912 168.444 51.3156 168.872 51.957C169.435 52.8007 170.52 53.1317 171.846 52.866C172.656 52.7038 173.226 52.1537 173.456 51.3156C173.559 50.9427 173.607 50.5222 173.608 49.9918C173.618 46.794 173.62 43.3809 173.613 39.2499C173.61 37.5215 173.53 35.6718 172.97 33.8613L172.969 33.8623ZM196.587 40.7565V40.7593C196.57 43.0136 196.004 44.8483 194.857 46.3717C193.794 47.7794 192.39 48.6371 190.681 48.9196C188.869 49.218 187.32 48.9457 185.942 48.0871C184.792 47.3702 183.942 46.3213 183.342 44.8791C182.735 43.4182 182.491 41.8184 182.597 39.9883C182.695 38.2962 183.107 36.8633 183.855 35.6084C184.821 33.9891 186.177 32.9952 187.885 32.6559C188.421 32.5477 188.966 32.4924 189.513 32.4909C192.237 32.4909 194.495 33.9471 195.725 36.578C196.327 37.8674 196.618 39.2733 196.587 40.7565ZM198.977 32.4172C196.997 30.0613 194.502 28.7104 191.564 28.4009C189.423 28.1744 187.345 28.4261 185.388 29.1468C184.059 29.6362 183.02 30.3364 182.212 31.2873C182.088 31.4368 181.969 31.5911 181.855 31.7497C181.827 31.6024 181.801 31.4551 181.775 31.3078C181.745 31.1277 181.712 30.9481 181.676 30.7689C181.413 29.4693 180.763 28.8149 179.567 28.647C178.766 28.5333 178.019 28.9491 177.751 29.6558C177.616 30.0128 177.547 30.4361 177.546 30.9144C177.538 39.5912 177.539 48.4115 177.54 56.942V60.0651C177.54 60.2227 177.542 60.4287 177.556 60.6338C177.669 62.2886 178.525 63.1277 180.102 63.1277H180.116C181.303 63.1239 182.082 62.6895 182.433 61.8327C182.625 61.3638 182.73 60.7764 182.735 60.1341C182.75 57.773 182.755 55.4118 182.749 53.0506C182.749 52.1649 182.748 51.2792 182.749 50.3936V50.3451C184.031 51.7342 185.683 52.6133 187.793 53.031C189.207 53.3107 190.655 53.3368 192.096 53.1056C193.736 52.8436 195.224 52.2665 196.519 51.3939C199.574 49.3317 201.322 46.2579 201.713 42.2584C201.888 40.4684 201.761 38.7372 201.333 37.1131C200.844 35.2579 200.074 33.7224 198.977 32.4172ZM107.338 38.0603H94.3305C94.8684 35.0416 97.4723 32.2214 101.562 32.5179C103.333 32.6456 104.811 33.466 105.958 34.9558C106.662 35.8639 107.136 36.9292 107.338 38.0603V38.0603ZM109.771 31.869C107.799 29.8861 105.365 28.7235 102.535 28.414C99.3695 28.0681 96.5213 28.7328 94.0694 30.3923C90.991 32.4769 89.2439 35.5637 88.8775 39.5679C88.7218 41.2467 88.8535 42.9397 89.2672 44.5742C89.7436 46.4528 90.5789 48.0647 91.7499 49.3653C93.827 51.6717 96.5885 52.9658 99.9596 53.2137C100.347 53.2417 100.732 53.2566 101.114 53.2566C102.698 53.2566 104.233 53.0124 105.692 52.5285C107.523 51.9207 108.955 51.0741 110.071 49.9414C110.694 49.3084 111.513 48.3025 111.444 46.8742C111.415 46.2626 111.047 45.6809 110.484 45.3546C109.962 45.0516 109.382 45.0217 108.89 45.2725C108.351 45.5466 107.814 45.9522 107.201 46.5479C105.474 48.2223 103.5 49.0371 101.163 49.039H101.159C99.5792 49.039 98.2796 48.6493 97.1861 47.8484C95.5005 46.615 94.5449 44.8157 94.1794 42.1876C94.172 42.1371 94.1658 42.0864 94.1608 42.0356C94.2167 42.0319 94.2904 42.0319 94.3454 42.0319H102.219L102.45 42.0207C103.135 42.0207 103.82 42.0226 104.505 42.0244C106.336 42.03 108.231 42.0338 110.095 42.0104C111.5 41.9918 112.532 41.1155 112.723 39.7776C112.891 38.5899 112.667 37.4469 112.425 36.4857C111.992 34.7582 111.098 33.2041 109.77 31.869H109.771ZM129.993 43.0751C129.994 43.3483 129.994 43.6214 129.993 43.8946C129.99 44.1249 129.988 44.3421 130.003 44.6777C129.961 45.9876 129.601 46.5171 129.013 47.2322C128.172 48.2568 127.025 48.8572 125.601 49.0175C124.552 49.1359 123.76 49.1695 123.031 49.1294C121.927 49.0679 121.038 48.7434 120.312 48.1356C119.614 47.551 119.27 46.7502 119.29 45.7554C119.318 44.3095 119.912 43.1656 121.058 42.3563C121.687 41.9116 122.45 41.5825 123.462 41.3224C124.278 41.1175 125.117 41.0172 125.958 41.0241C126.341 41.0241 126.738 41.0427 127.151 41.0782C127.775 41.1322 128.412 41.2562 129.027 41.3765C129.31 41.4324 129.591 41.4874 129.874 41.5368C129.967 41.5527 130.006 41.5592 130.001 41.7382C129.989 42.1848 129.991 42.6369 129.993 43.0751V43.0751ZM135.247 37.7685C135.247 36.33 135.064 35.0957 134.689 33.9937C134.096 32.2522 133.054 30.8836 131.589 29.9261C130.113 28.9603 128.334 28.4391 126.151 28.3329C124.341 28.2413 122.529 28.4572 120.791 28.9715C119.141 29.4619 117.913 30.1303 116.923 31.0757C116.096 31.8662 115.651 32.737 115.565 33.7364C115.504 34.4543 115.843 35.1731 116.451 35.6103C117.098 36.0764 117.908 36.1529 118.674 35.821C119.311 35.5441 119.713 35.0416 120.135 34.4617C121.089 33.15 122.401 32.447 124.03 32.3715C124.992 32.3282 125.955 32.371 126.909 32.4993C128.048 32.6503 128.916 33.287 129.417 34.3405C130.024 35.6168 130.116 36.9752 130.111 38.1545C128.97 37.6884 127.796 37.5467 126.689 37.4674C124.851 37.335 122.938 37.4963 121.004 37.9485C119.118 38.3885 117.69 39.07 116.508 40.0909C115.433 41.0097 114.678 42.2459 114.351 43.6214C114.064 44.7707 114.011 45.9659 114.195 47.1362C114.427 48.5868 114.972 49.7512 115.863 50.6966C117.27 52.191 119.159 53.0049 121.636 53.1858C121.972 53.2091 122.307 53.2193 122.637 53.2193C123.555 53.2193 124.434 53.1401 125.148 53.0636C126.789 52.8865 128.293 52.2525 129.618 51.1767C129.777 51.048 129.934 50.9157 130.087 50.787C130.139 51.1618 130.251 51.5748 130.506 51.9579C131.069 52.8007 132.153 53.1326 133.48 52.866C134.288 52.7038 134.86 52.1537 135.09 51.3156C135.193 50.9427 135.24 50.5222 135.242 49.9918C135.25 46.6194 135.252 43.247 135.248 39.8746L135.247 37.7676V37.7685ZM256.604 28.8745C255.62 28.5585 254.572 28.9379 254.114 29.777C253.885 30.1974 253.711 30.6487 253.544 31.0859L253.529 31.1241C252.722 33.2264 251.921 35.3315 251.121 37.4357L250.796 38.2897L248.723 43.7408L248.024 45.583C247.835 45.0777 247.649 44.5724 247.462 44.0671C247.22 43.4126 246.979 42.7591 246.735 42.1055C246.387 41.1733 246.038 40.2428 245.688 39.3115L244.623 36.4708C244.362 35.7716 244.104 35.0714 243.846 34.3713C243.364 33.0589 242.875 31.7493 242.378 30.4426C242.251 30.1113 242.058 29.8093 241.811 29.5556C241.563 29.3019 241.266 29.1018 240.937 28.9678C240.599 28.8279 240.236 28.758 239.87 28.7623C239.503 28.7666 239.142 28.8451 238.807 28.9929C237.501 29.5728 236.94 31.0281 237.472 32.4554C237.711 33.0931 237.971 33.7327 238.221 34.3508C238.355 34.6789 238.488 35.0071 238.619 35.3362L239.906 38.5843C240.698 40.5794 241.488 42.5763 242.283 44.5696C242.635 45.4515 242.989 46.3316 243.343 47.2117C243.875 48.5299 244.424 49.8929 244.953 51.2382C244.98 51.3063 245.01 51.3734 245.041 51.4405C245.166 51.7137 245.238 51.8936 245.141 52.1379C244.584 53.5245 244.061 54.9243 243.572 56.336C243.104 57.6943 242.188 58.5763 240.773 59.0312C240.271 59.1899 239.795 59.4244 239.364 59.7267C238.756 60.1611 238.597 61.2025 238.835 61.8654C239.118 62.6541 239.809 63.1267 240.684 63.1286H240.712C242.18 63.1286 243.422 62.779 244.507 62.0593C245.587 61.3433 246.427 60.2786 247.074 58.8056C247.58 57.6533 248.046 56.4618 248.498 55.3105L248.919 54.2402C249.567 52.6031 250.213 50.9651 250.858 49.327L252.238 45.8282C252.675 44.7243 253.113 43.6205 253.55 42.5176L254.683 39.6602L255.11 38.5796C255.874 36.6489 256.665 34.6519 257.433 32.6839L257.513 32.4806C257.7 32.0089 257.893 31.5213 257.979 31.0123C258.125 30.1555 257.483 29.157 256.604 28.8755V28.8745ZM237.957 22.7C238.378 21.6297 237.937 20.0952 236.994 19.3494C236.169 18.6968 235.155 18.336 233.802 18.212C232.272 18.0721 230.947 18.1681 229.752 18.5066C228.412 18.886 227.421 19.56 226.722 20.5679C225.938 21.7015 225.545 23.0477 225.489 24.8042C225.452 25.9863 225.461 27.188 225.47 28.3496L225.475 29.0945C225.475 29.1971 225.458 29.2223 225.458 29.2223C225.458 29.2232 225.434 29.2446 225.306 29.2614C224.838 29.3197 224.377 29.4167 223.926 29.5514C223.165 29.7835 222.704 30.2702 222.593 30.961C222.449 31.8532 222.752 32.5738 223.469 33.0428C223.962 33.3654 224.483 33.3654 224.988 33.3663C225.069 33.3663 225.149 33.3663 225.23 33.3681H225.249C225.33 33.3691 225.413 33.3709 225.465 33.3756C225.47 33.4325 225.47 33.5276 225.47 33.6143V49.671C225.47 49.7484 225.468 49.8267 225.466 49.9041C225.459 50.1344 225.453 50.3731 225.499 50.6108C225.573 50.9968 225.675 51.4443 225.866 51.8423C226.133 52.3989 226.71 52.7784 227.487 52.9117C227.679 52.9443 227.878 52.9611 228.074 52.9611C228.547 52.9611 229.014 52.8679 229.376 52.6954C230.198 52.302 230.621 51.5645 230.63 50.5036C230.644 48.4725 230.648 46.4413 230.641 44.4102L230.639 42.3078H230.649V33.6842L230.65 33.5928C230.651 33.5285 230.652 33.4642 230.65 33.3998V33.3831H230.657C230.972 33.4148 232.103 33.4008 232.971 33.37C233.835 33.3392 234.991 33.1052 235.039 31.4355C235.069 30.3662 234.603 29.6381 233.69 29.3313C233.325 29.2092 232.153 29.1645 231.488 29.1496L231.238 29.143C231.175 29.1298 231.11 29.1298 231.047 29.143L230.799 29.1468H230.781C230.74 29.1494 230.699 29.1462 230.66 29.1374C230.644 29.089 230.639 29.0379 230.644 28.9873C230.652 28.1679 230.651 27.3353 230.651 26.5298C230.651 25.9677 230.651 25.4046 230.653 24.8424C230.654 24.6252 230.676 24.3968 230.718 24.1618C230.896 23.1783 231.537 22.6114 232.571 22.521C233.393 22.4501 234.145 22.6748 234.936 23.2258C235.496 23.6174 236.116 23.7553 236.777 23.6369C237.348 23.5344 237.756 23.2109 237.957 22.7V22.7ZM86.1506 29.1496C85.2168 29.1366 84.2829 29.1335 83.3491 29.1402L82.4391 29.1421C82.2946 29.1421 82.1464 29.143 82.0793 29.1328C82.069 29.0703 82.069 28.9342 82.069 28.8018V27.946C82.0709 27.3213 82.0718 26.6967 82.0672 26.0721C82.0655 25.8194 82.0651 25.5668 82.0662 25.3141C82.0672 24.6065 82.069 23.8756 82.0122 23.1559C81.9572 22.4511 81.6765 21.901 81.2001 21.5663C80.6622 21.1888 79.9043 21.1067 79.0652 21.337C78.393 21.5206 77.9371 22.0054 77.7786 22.7019C77.7003 23.0543 77.6761 23.4151 77.6519 23.7647L77.6397 23.9287C77.6118 24.3334 77.5875 24.738 77.5651 25.1426C77.5271 25.9397 77.4659 26.7356 77.3815 27.5292C77.3162 28.0849 77.0692 28.8279 76.2599 29.2074C76.0604 29.3006 75.8497 29.3733 75.6269 29.4497C75.4538 29.5066 75.2825 29.5687 75.1132 29.6362C74.3693 29.9439 73.9581 30.5648 73.9553 31.3861C73.9525 32.2466 74.3842 32.8955 75.1375 33.1668C75.5337 33.3085 75.9625 33.3309 76.3765 33.3523L76.5862 33.3635L76.6468 33.3672C76.7224 33.3719 76.8053 33.3765 76.8547 33.384C76.8613 33.4409 76.8613 33.5444 76.8613 33.6376L76.8585 36.854C76.8547 39.6602 76.8519 42.5624 76.8734 45.417C76.8799 46.3372 76.9731 47.3282 77.1493 48.3631C77.3358 49.4538 77.8467 50.4374 78.669 51.2876C79.7346 52.3877 81.2393 52.9611 82.7412 52.9611C83.831 52.9611 84.919 52.659 85.8364 52.0381C86.7286 51.434 87.2134 50.6994 87.3169 49.7913C87.4157 48.9345 86.8703 48.0824 86.1273 47.9295C85.5157 47.8037 84.9927 47.882 84.5275 48.1673C84.2571 48.3332 84.0128 48.4768 83.7593 48.5411C83.309 48.6567 82.9146 48.6278 82.6498 48.4609C82.4429 48.3304 82.3077 48.1104 82.249 47.8074C82.1706 47.4121 82.0905 46.946 82.0867 46.4864C82.0761 44.9991 82.073 43.5117 82.0774 42.0244L82.0793 40.4106L82.069 40.1785V33.5714C82.069 33.5276 82.069 33.426 82.0756 33.3663C82.1156 33.3654 82.1818 33.3663 82.2713 33.3737C83.0545 33.4297 84.5834 33.5229 85.3013 33.5462C85.8122 33.563 86.4498 33.5844 87.0325 33.453C87.7606 33.2889 88.279 32.8032 88.4925 32.0872C88.7283 31.2947 88.5419 30.3494 88.0487 29.8413C87.4772 29.253 86.7342 29.1626 86.1506 29.1496V29.1496ZM210.322 20.9286C210.277 20.6294 210.224 20.3115 210.107 20.0103C209.657 18.8543 208.598 18.3947 207.046 18.6809C206.214 18.8347 205.625 19.3335 205.384 20.0849C205.246 20.5194 205.175 21.0321 205.173 21.6111C205.163 25.2862 205.164 29.0228 205.164 32.6354L205.165 35.7725V49.9517C205.164 50.1791 205.163 50.4141 205.189 50.649C205.324 51.8722 205.932 52.6236 206.944 52.8212C207.308 52.8921 207.648 52.9285 207.96 52.9285C208.132 52.9285 208.296 52.9173 208.45 52.8958C209.184 52.7933 209.758 52.3514 210.064 51.6522C210.324 51.0602 210.345 50.4402 210.345 49.9051L210.343 32.4154V21.653C210.343 21.5999 210.343 21.5477 210.345 21.4945C210.353 21.3056 210.345 21.1163 210.322 20.9286V20.9286ZM220.142 30.906C220.092 30.2953 219.924 29.8301 219.615 29.4423C219.183 28.9016 218.567 28.6284 217.73 28.6051C216.311 28.5678 215.448 29.0955 215.089 30.2217C214.955 30.6412 214.937 31.0943 214.936 31.484C214.928 37.3891 214.927 43.6112 214.936 49.9787C214.936 50.4728 214.978 50.8597 215.066 51.2C215.407 52.5043 216.479 52.9518 217.532 52.9518C217.823 52.9518 218.114 52.9173 218.387 52.8576C219.15 52.6898 219.686 52.2003 219.896 51.4788C220.064 50.9007 220.148 50.3973 220.151 49.9377C220.167 47.6573 220.165 45.3387 220.163 43.0966L220.161 40.8227V32.2699L220.163 31.9362C220.167 31.5987 220.17 31.2509 220.142 30.906V30.906ZM217.518 20.6415C217.135 20.6417 216.756 20.7173 216.402 20.8641C216.048 21.0108 215.727 21.2258 215.456 21.4968C215.185 21.7677 214.971 22.0894 214.824 22.4433C214.678 22.7972 214.603 23.1765 214.603 23.5596C214.603 23.9426 214.679 24.3218 214.825 24.6756C214.972 25.0294 215.187 25.3508 215.458 25.6215C215.729 25.8922 216.051 26.1069 216.405 26.2533C216.759 26.3997 217.138 26.475 217.521 26.4748C218.295 26.4744 219.036 26.1668 219.583 25.6196C220.13 25.0723 220.437 24.3303 220.436 23.5568C220.436 22.7832 220.128 22.0415 219.581 21.4948C219.034 20.9481 218.292 20.6411 217.518 20.6415" fill="black"/>
</g>
<defs>
<linearGradient id="paint0_linear" x1="45.573" y1="18.1169" x2="52.8803" y2="56.3747" gradientUnits="userSpaceOnUse">
<stop stop-color="#D1F90A"/>
<stop offset="1" stop-color="#0BCE52"/>
</linearGradient>
<linearGradient id="paint1_linear" x1="53.5828" y1="25.4083" x2="55.6939" y2="29.9784" gradientUnits="userSpaceOnUse">
<stop stop-color="#BDF412"/>
<stop offset="1" stop-color="#8DEA23"/>
</linearGradient>
<clipPath id="clip0">
<rect width="230" height="46" fill="white" transform="translate(27 17)"/>
</clipPath>
</defs>
</svg>
