<?xml version="1.0" ?><!DOCTYPE svg  PUBLIC '-//W3C//DTD SVG 1.1//EN'  'http://www.w3.org/Graphics/SVG/1.1/DTD/svg11.dtd'><svg enable-background="new 0 0 28.648 29.484" height="29.484px" id="Capa_1" version="1.1" viewBox="0 0 28.648 29.484" width="28.648px" xml:space="preserve" xmlns="http://www.w3.org/2000/svg" xmlns:xlink="http://www.w3.org/1999/xlink"><g><path d="M27.598,12.929c-2.763-2.246-7.408-5.511-13.256-5.621c-0.006,0-0.012,0-0.018,0s-0.012,0-0.018,0   C8.464,7.42,3.812,10.683,1.052,12.929C0.92,13.038,0.016,13.729,0,14.616c-0.011,0.624,0.28,1.085,0.699,1.47   c2.255,2.182,7.176,6.059,13.609,6.088v0.002c0.006,0,0.012,0,0.018,0c0.005,0,0.011,0,0.018,0v-0.002   c6.445-0.029,11.354-3.906,13.607-6.088c0.418-0.385,0.708-0.846,0.697-1.47C28.632,13.729,27.73,13.038,27.598,12.929z    M14.326,20.496c-3.162-0.021-5.719-2.59-5.719-5.756c0-3.167,2.557-5.735,5.719-5.755c3.17,0.02,5.718,2.589,5.718,5.755   C20.044,17.906,17.497,20.475,14.326,20.496z"/><path d="M14.344,12.503c-0.006-0.001-0.012-0.001-0.018-0.001s-0.012,0-0.018,0v0.001c-1.21,0.03-2.186,1.021-2.186,2.237   c0,1.217,0.975,2.208,2.186,2.235v0.002c0.006,0,0.012-0.002,0.018-0.002c0.005,0,0.011,0.002,0.018,0.002v-0.002   c1.222-0.027,2.186-1.02,2.186-2.235C16.526,13.522,15.563,12.533,14.344,12.503z"/></g></svg>